<svg xmlns="http://www.w3.org/2000/svg" width="486" height="120" fill="none" xmlns:v="https://vecta.io/nano"><path d="M67.913 0L55.384 6.76 81.97 20.869l11.41-8.353L67.913 0zM45.867 12.83l-15.458 8.34 27.693 17.185 14.243-10.431L45.867 12.83z" fill="#fff"/><g fill="#e41e2d"><path d="M20.368 27.776L.638 38.424l27.955 21.54L47.242 46.31 20.368 27.776zm105.309-6.523L99.212 8.244l-11.41 8.353 27.75 14.723 10.124-10.067zm-18.841 18.739L78.177 23.651 63.935 34.082 94.02 52.751l12.817-12.759z"/><path d="M83.62 63.099l-30.545-21.06-18.649 13.654L66.34 80.29l17.28-17.191zm36.755-36.576l31.153 16.533 6.574-13.034-27.603-13.565-10.124 10.067zm-21.534 21.43l38.245 23.727 8.615-17.076-34.044-19.41-12.816 12.759z"/><path d="M71.162 75.487l46.086 35.508 12.293-24.361-41.098-28.332-17.281 17.185z"/></g><g fill="#fff"><path d="M476.442 105.298c.49-.711.98-1.507 1.47-2.39l1.434-2.83 1.36-2.94 1.286-2.867.809.147.882.037.846-.037.918-.147-1.58 2.72-1.985 3.602-2.169 4.006-1.948 3.749-.036 1.801-.037 1.802.037 3.712.33 3.859-1.58-.073h-1.544-1.58l-1.544.073.257-3.455a33.89 33.89 0 0 0 .184-3.528l-.037-1.691-.037-1.728-2.132-4.08-2.315-4.41-2.059-3.86-1.36-2.499 1.655.147 1.654.037 1.617-.037 1.654-.147 1.397 3.014 1.58 3.234 1.434 2.867 1.066 1.912h.073zm-37.981-3.713l-.074-4.263-.11-3.051c.686.123 1.237.184 1.654.184s.968-.061 1.654-.184l7.903 8.748 8.049 8.748v-3.198-3.565l-.037-3.529-.036-3.235a37.53 37.53 0 0 0-.074-2.536l-.11-1.433c.686.123 1.237.184 1.654.184s.968-.061 1.654-.184l-.294 6.065-.184 5.072-.11 4.741v4.963 4.41c-.49-.049-.992-.073-1.507-.073-.539 0-1.017.024-1.434.073-5.047-5.881-10.402-11.798-16.062-17.753l-.074 2.132v2.169 4.263 3.749l.074 2.61.073 1.764.074 1.066c-.294-.049-.588-.073-.882-.073h-.846c-.563 0-1.127.024-1.69.073.049-.196.11-.894.183-2.095l.221-4.374c.098-1.74.171-3.614.22-5.623.074-2.034.111-3.982.111-5.845zm-17.128-.405l-1.801 4.374-1.654 4.374h6.726l-1.617-4.374-1.654-4.374zm13.012 18.341l-1.691-.073h-1.544-1.58l-1.544.073-1.213-3.676-1.323-3.749-2.353-.036-2.352-.037-1.911.037-1.912.036-1.36 3.749-1.139 3.676c-.294-.049-.588-.073-.882-.073h-.846-.882c-.294 0-.613.024-.956.073l1.177-2.646 1.617-3.823 1.874-4.558 2.022-4.962 1.985-4.925 1.801-4.521.698.147a6.35 6.35 0 0 0 .699.037c.245 0 .478-.012.698-.037l.698-.147 2.5 6.689 2.72 7.021 2.646 6.506 2.353 5.219zm-28.522-18.193c0-.931-.111-1.715-.331-2.352-.196-.637-.478-1.139-.846-1.507a2.91 2.91 0 0 0-1.249-.845 4.22 4.22 0 0 0-1.471-.257h-.845-.367a1.34 1.34 0 0 0-.331.037l-.074 5.219v5.109c.613 0 1.238-.061 1.875-.184.661-.122 1.262-.367 1.801-.735.539-.392.98-.943 1.323-1.654s.515-1.654.515-2.83zm-10.954 3.124l-.073-5.403-.221-4.778 1.36.147 1.654.037 2.647-.073 2.72-.11c1.739 0 3.099.135 4.08.404.98.245 1.752.613 2.315 1.103.784.637 1.36 1.348 1.728 2.132s.551 1.728.551 2.83c0 1.397-.233 2.597-.698 3.602a6.32 6.32 0 0 1-1.985 2.463c-.833.612-1.826 1.066-2.977 1.36s-2.414.441-3.786.441h-1.875l.037 5.513.257 5.403a11.68 11.68 0 0 0-1.36-.073h-1.654-1.654c-.49 0-.943.024-1.36.073l.221-4.631.073-5.44v-4.999zm-29.393-1.507l-.882 8.344-.588 8.233c-.294-.049-.588-.073-.882-.073h-.846-.882c-.269 0-.551.024-.845.073.784-4.214 1.482-8.405 2.095-12.57l1.691-12.681a19.85 19.85 0 0 1 .735.147 7.76 7.76 0 0 0 .772.037 7.03 7.03 0 0 0 .698-.037l.772-.147 2.058 4.484 2.169 4.558 2.169 4.411 2.095 4.116a233.49 233.49 0 0 0 4.374-8.601 290.48 290.48 0 0 0 4.19-8.968c.613.123 1.139.184 1.58.184.417 0 .932-.061 1.544-.184l.772 6.8.845 7.13.809 6.47c.27 2.009.515 3.626.735 4.851-.49-.049-.992-.073-1.507-.073h-1.47-1.507a16.28 16.28 0 0 0-1.544.073c-.122-2.524-.331-5.256-.625-8.196l-.845-8.748h-.074l-4.116 8.527-4.007 8.417-.367-.073h-.331-.368c-.098.024-.208.049-.33.073l-3.97-8.233-4.043-8.344h-.074zm-13.527 3.197c0-1.592-.196-3.014-.588-4.263-.392-1.275-.944-2.353-1.654-3.235a6.79 6.79 0 0 0-2.537-2.022c-.98-.49-2.058-.735-3.234-.735-1.25 0-2.377.306-3.382.919-.98.588-1.813 1.397-2.499 2.426s-1.213 2.242-1.581 3.639c-.343 1.372-.514 2.843-.514 4.411 0 1.96.208 3.614.625 4.962s.98 2.438 1.69 3.271c.711.809 1.532 1.397 2.463 1.765s1.911.551 2.941.551c1.102 0 2.156-.233 3.161-.698s1.874-1.177 2.609-2.132c.76-.956 1.36-2.169 1.801-3.639.466-1.47.699-3.21.699-5.22zm-22.017.809c0-1.813.33-3.516.992-5.109a13.02 13.02 0 0 1 2.867-4.19c1.225-1.201 2.708-2.144 4.448-2.83s3.675-1.029 5.807-1.029c1.96 0 3.786.27 5.477.809s3.161 1.348 4.411 2.426 2.229 2.45 2.94 4.117c.735 1.641 1.103 3.565 1.103 5.77 0 1.838-.356 3.553-1.066 5.146a12.73 12.73 0 0 1-2.904 4.19c-1.225 1.177-2.695 2.095-4.411 2.757s-3.602.993-5.66.993c-1.936 0-3.762-.233-5.477-.699-1.691-.49-3.173-1.262-4.447-2.316-1.25-1.078-2.243-2.438-2.978-4.079-.735-1.667-1.102-3.652-1.102-5.955zm-2.646 8.417l-.515 1.581c-.147.514-.245 1.029-.294 1.544-1.984 1.004-4.484 1.507-7.498 1.507-2.132 0-4.043-.295-5.734-.883-1.666-.612-3.087-1.458-4.264-2.536-1.151-1.103-2.033-2.401-2.646-3.896s-.919-3.112-.919-4.852c0-2.548.392-4.705 1.176-6.469.809-1.789 1.875-3.235 3.198-4.337 1.348-1.127 2.904-1.948 4.668-2.463s3.614-.772 5.55-.772a14.82 14.82 0 0 1 2.022.147c.711.098 1.397.233 2.058.404.662.147 1.287.331 1.875.551.612.221 1.127.453 1.544.698a12.89 12.89 0 0 0-.589 1.875c-.122.613-.208 1.237-.257 1.874h-.514c-.932-1.176-1.887-2.009-2.867-2.499-.981-.515-2.132-.772-3.455-.772-.981 0-1.973.221-2.978.662-.98.441-1.874 1.115-2.683 2.022s-1.47 2.071-1.985 3.492c-.49 1.397-.735 3.075-.735 5.036 0 1.887.257 3.504.772 4.852.515 1.323 1.176 2.413 1.985 3.271.833.833 1.764 1.446 2.793 1.838 1.054.392 2.108.588 3.161.588a9.13 9.13 0 0 0 1.801-.184c.613-.147 1.213-.331 1.801-.551a9.64 9.64 0 0 0 1.654-.882c.54-.343 1.005-.723 1.397-1.14l.478.294zm-46.202-15.106l-.037-1.948c0-.588-.025-1.017-.074-1.286l-1.36.037-1.727.11-1.875.147-1.764.184.11-.809c.049-.27.074-.539.074-.809s-.025-.539-.074-.809l-.11-.809 2.242.074 2.059.073 2.278.037h2.978 2.94l2.279-.037 1.985-.073 2.132-.074-.147.809-.037.809.037.809.147.809-1.654-.184-1.838-.147-1.691-.11-1.36-.037a6.41 6.41 0 0 0-.073.515v.772 1.948 9.189l.073 5.44.221 4.631c-.417-.049-.87-.073-1.36-.073h-1.654-1.654a11.68 11.68 0 0 0-1.36.073l.22-4.631.074-5.44v-9.189zm-32.614 1.323l-.074-4.263-.11-3.051c.686.123 1.237.184 1.654.184s.968-.061 1.654-.184l7.902 8.748 8.05 8.748v-3.198-3.565l-.037-3.529-.036-3.235a37.53 37.53 0 0 0-.074-2.536l-.11-1.433c.686.123 1.237.184 1.654.184s.968-.061 1.654-.184l-.294 6.065-.184 5.072-.11 4.741v4.963 4.41a15.15 15.15 0 0 0-1.507-.073c-.539 0-1.017.024-1.434.073-5.048-5.881-10.402-11.798-16.062-17.753l-.074 2.132v2.169 4.263 3.749l.074 2.61.073 1.764.074 1.066c-.294-.049-.588-.073-.882-.073h-.846c-.563 0-1.127.024-1.691.073.049-.196.111-.894.184-2.095l.221-4.374c.098-1.74.171-3.614.22-5.623.074-2.034.111-3.982.111-5.845zM230.741 120c-1.569 0-3.039-.171-4.411-.514-1.348-.319-2.524-.858-3.529-1.618-1.004-.784-1.801-1.776-2.389-2.977-.564-1.225-.845-2.708-.845-4.447v-2.61l.036-2.169v-1.911l.037-1.911-.037-4.815-.11-2.757 1.507.147 1.507.037 1.507-.037 1.507-.147-.441 6.653-.073 6.211c0 2.23.159 4.031.477 5.404s.785 2.438 1.397 3.197a4.59 4.59 0 0 0 2.316 1.471c.906.245 1.96.367 3.161.367 1.47 0 2.622-.367 3.455-1.102s1.458-1.716 1.875-2.941c.441-1.225.71-2.622.808-4.19l.147-4.962-.073-5.036-.221-5.072.993.147.882.037.919-.037.919-.147-.147 2.169-.147 3.161-.148 3.933-.036 4.521c0 4.264-.919 7.327-2.757 9.189-1.838 1.838-4.533 2.757-8.086 2.757zm-21.797-13.858c0-1.592-.196-3.014-.588-4.263-.392-1.275-.944-2.353-1.654-3.235a6.79 6.79 0 0 0-2.537-2.022c-.98-.49-2.058-.735-3.234-.735-1.25 0-2.377.306-3.382.919-.98.588-1.813 1.397-2.499 2.426s-1.213 2.242-1.581 3.639c-.343 1.372-.514 2.843-.514 4.411 0 1.96.208 3.614.625 4.962s.98 2.438 1.69 3.271c.711.809 1.532 1.397 2.463 1.765s1.911.551 2.941.551c1.102 0 2.156-.233 3.161-.698s1.874-1.177 2.609-2.132c.76-.956 1.36-2.169 1.801-3.639.466-1.47.699-3.21.699-5.22zm-22.017.809c0-1.813.331-3.516.992-5.109a13.02 13.02 0 0 1 2.867-4.19c1.225-1.201 2.708-2.144 4.448-2.83s3.675-1.029 5.807-1.029c1.961 0 3.786.27 5.477.809s3.161 1.348 4.411 2.426 2.23 2.45 2.94 4.117c.735 1.641 1.103 3.565 1.103 5.77 0 1.838-.355 3.553-1.066 5.146a12.73 12.73 0 0 1-2.904 4.19c-1.225 1.177-2.695 2.095-4.411 2.757s-3.602.993-5.66.993c-1.936 0-3.761-.233-5.477-.699-1.691-.49-3.173-1.262-4.447-2.316-1.25-1.078-2.242-2.438-2.978-4.079-.735-1.667-1.102-3.652-1.102-5.955zm-27.739-4.006l-.882 8.344-.588 8.233c-.294-.049-.588-.073-.882-.073h-.846-.882c-.269 0-.551.024-.845.073.784-4.214 1.482-8.405 2.095-12.57l1.691-12.681a19.85 19.85 0 0 1 .735.147 7.76 7.76 0 0 0 .772.037 7.03 7.03 0 0 0 .698-.037l.772-.147 2.058 4.484 2.169 4.558 2.168 4.411 2.096 4.116a233.49 233.49 0 0 0 4.374-8.601 290.48 290.48 0 0 0 4.19-8.968c.612.123 1.139.184 1.58.184.417 0 .931-.061 1.544-.184l.772 6.8.845 7.13.809 6.47c.27 2.009.515 3.626.735 4.851-.49-.049-.992-.073-1.507-.073h-1.47-1.507a16.28 16.28 0 0 0-1.544.073c-.122-2.524-.331-5.256-.625-8.196l-.845-8.748h-.074l-4.116 8.527-4.007 8.417-.367-.073h-.331-.368c-.098.024-.208.049-.331.073l-3.969-8.233-4.043-8.344h-.074zm219.053-25.347v2.205 1.948l.037 1.139 1.323.074 1.911.037c2.769 0 4.962-.943 6.58-2.83s2.425-4.742 2.425-8.564c0-1.519-.208-2.879-.624-4.08-.392-1.201-.956-2.218-1.691-3.051a7.15 7.15 0 0 0-2.647-1.948c-1.029-.466-2.181-.698-3.455-.698l-2.168.073-1.654.11-.037 1.139v1.985 2.205 1.838 6.543 1.875zm-5.44-7.682l-.074-5.403-.22-4.778 1.36.147 1.654.037 2.72-.073 3.933-.11c2.107 0 4.018.196 5.734.588 1.74.368 3.234 1.005 4.484 1.911s2.218 2.132 2.904 3.676c.686 1.519 1.029 3.443 1.029 5.771 0 2.034-.343 3.872-1.029 5.513-.662 1.642-1.581 3.051-2.757 4.227a11.8 11.8 0 0 1-4.043 2.646c-1.519.613-3.149.919-4.889.919a250.54 250.54 0 0 1-4.705-.037l-3.381-.037h-1.654c-.49 0-.944.025-1.36.073l.22-4.631.074-5.44v-4.999zm-28.277-2.867l-.073-4.264-.111-3.051c.687.123 1.238.184 1.654.184s.968-.061 1.654-.184l7.903 8.748 8.05 8.748v-3.198-3.565l-.037-3.529-.037-3.235-.073-2.536-.111-1.434c.687.123 1.238.184 1.654.184s.968-.061 1.655-.184l-.295 6.065-.183 5.072-.111 4.742v4.962 4.411c-.49-.049-.992-.073-1.507-.073-.539 0-1.017.025-1.433.073-5.048-5.881-10.402-11.799-16.063-17.753l-.073 2.132v2.169 4.264 3.749l.073 2.61.074 1.764.073 1.066c-.294-.049-.588-.073-.882-.073h-.845a19.92 19.92 0 0 0-1.691.073c.049-.196.11-.894.184-2.095l.22-4.374c.098-1.74.172-3.614.221-5.624.073-2.034.11-3.982.11-5.844zm-17.729 18.415c-1.568 0-3.038-.172-4.41-.515-1.348-.319-2.524-.858-3.529-1.617-1.005-.784-1.801-1.777-2.389-2.977-.564-1.225-.846-2.708-.846-4.448v-2.61l.037-2.169v-1.911l.037-1.911-.037-4.815-.11-2.757 1.507.147 1.507.037 1.507-.037 1.507-.147-.441 6.653-.074 6.212c0 2.23.16 4.031.478 5.403s.784 2.438 1.397 3.198c.637.735 1.409 1.225 2.316 1.47s1.96.368 3.161.368c1.47 0 2.622-.368 3.455-1.103s1.458-1.715 1.874-2.941c.441-1.225.711-2.622.809-4.19l.147-4.962-.074-5.036-.22-5.072.992.147.882.037.919-.037.919-.147-.147 2.169-.147 3.161-.147 3.933-.037 4.521c0 4.264-.918 7.327-2.756 9.189-1.838 1.838-4.534 2.757-8.087 2.757zm-21.797-13.857c0-1.593-.196-3.014-.588-4.264-.392-1.274-.943-2.352-1.654-3.234a6.78 6.78 0 0 0-2.536-2.022c-.98-.49-2.058-.735-3.234-.735-1.25 0-2.377.306-3.382.919-.98.588-1.813 1.397-2.499 2.426s-1.213 2.242-1.581 3.639c-.343 1.372-.515 2.843-.515 4.411 0 1.96.209 3.614.625 4.962s.981 2.438 1.691 3.271c.711.809 1.532 1.397 2.463 1.764s1.911.551 2.94.551a7.43 7.43 0 0 0 3.161-.698c1.005-.465 1.875-1.176 2.61-2.132.76-.956 1.36-2.169 1.801-3.639.466-1.47.698-3.21.698-5.219zm-22.017.809c0-1.813.331-3.516.993-5.109a13.02 13.02 0 0 1 2.867-4.19c1.225-1.201 2.708-2.144 4.447-2.83s3.676-1.029 5.808-1.029c1.96 0 3.786.27 5.477.809s3.161 1.348 4.41 2.426 2.23 2.45 2.941 4.117c.735 1.642 1.103 3.565 1.103 5.771 0 1.838-.356 3.553-1.066 5.146-.687 1.593-1.654 2.99-2.904 4.19-1.225 1.176-2.696 2.095-4.411 2.757s-3.602.992-5.66.992c-1.936 0-3.762-.233-5.477-.698-1.691-.49-3.173-1.262-4.448-2.316-1.249-1.078-2.242-2.438-2.977-4.08-.735-1.666-1.103-3.651-1.103-5.955zm-9.237-5.771c0-1.078-.111-1.936-.331-2.573s-.564-1.115-1.029-1.434c-.441-.343-1.03-.564-1.765-.662-.71-.098-1.568-.147-2.573-.147l-.11 9.998.404.073h.405c1.617 0 2.855-.429 3.712-1.286.858-.882 1.287-2.205 1.287-3.97zm-5.808 6.763v1.507l.074 5.44.22 4.631a11.68 11.68 0 0 0-1.36-.073h-1.654-1.654a11.69 11.69 0 0 0-1.36.073l.221-4.631.073-5.44v-4.999l-.073-5.403-.221-4.778 1.36.147 1.654.037 2.242-.073c.858-.074 1.912-.11 3.161-.11l2.39.074a13.01 13.01 0 0 1 1.69.221c.49.098.907.233 1.25.404a5.18 5.18 0 0 1 1.029.551 5.73 5.73 0 0 1 1.728 2.022c.441.784.661 1.728.661 2.83 0 1.789-.49 3.247-1.47 4.374s-2.389 1.924-4.227 2.389l3.786 6.249 4.043 6.138-1.654-.073h-1.654-1.691l-1.654.073-6.579-11.578h-.331zm-13.061-8.197a8.95 8.95 0 0 0-2.94-2.646c-1.176-.686-2.61-1.029-4.301-1.029-1.127 0-2.254.245-3.381.735-1.103.465-2.095 1.176-2.977 2.132-.858.956-1.556 2.156-2.096 3.602-.539 1.421-.808 3.1-.808 5.036 0 1.47.196 2.83.588 4.08.416 1.25 1.005 2.34 1.764 3.271a8.02 8.02 0 0 0 2.794 2.132c1.103.515 2.364.772 3.786.772l1.066-.037 1.176-.147 1.066-.184c.318-.098.551-.196.698-.294.049-.294.074-.662.074-1.103l.036-1.47-.11-4.374-.147-1.948.956.147 1.764.037 1.948-.037 1.029-.147c-.049.196-.098.514-.147.956l-.073 1.544-.074 1.838v1.838 1.213 1.727c.025.515.061.882.11 1.103-1.617.466-3.259.833-4.925 1.103a30.08 30.08 0 0 1-4.888.404c-2.108 0-4.056-.269-5.845-.809-1.764-.564-3.296-1.372-4.594-2.426a11.85 11.85 0 0 1-3.014-3.859c-.711-1.519-1.066-3.222-1.066-5.109 0-2.328.38-4.362 1.139-6.101.784-1.764 1.85-3.222 3.198-4.374 1.372-1.176 2.99-2.058 4.852-2.646s3.872-.882 6.028-.882c1.862 0 3.467.196 4.815.588 1.372.368 2.72.907 4.043 1.617l-.588 1.875-.441 1.875h-.515zm-49.926 4.705l-.073-5.403-.221-4.778 3.272.11 3.271.073 4.815-.037 2.867-.147c-.098.392-.147.907-.147 1.544l.037.919.11.735-2.352-.147-2.463-.147-2.132-.11-1.36-.037-.184 4.006v4.006l4.301-.11 4.043-.184-.147.956a6.21 6.21 0 0 0-.037.698c0 .196.012.404.037.625a8.06 8.06 0 0 1 .147.882l-8.344-.331-.036 2.352v2.352l.11 4.595 4.19-.11 4.227-.368-.11.735c-.025.221-.037.527-.037.919l.037.919c.024.221.061.404.11.551l-2.463-.073h-3.969-3.639-2.206-1.249l-.699.073.221-4.631.073-5.44v-4.999zm-11.663 2.904l-2.794-.074-2.793-.073-2.794.037-2.793.11v2.095l.073 5.44.221 4.631a11.69 11.69 0 0 0-1.36-.073h-1.654-1.654a11.69 11.69 0 0 0-1.36.073l.22-4.631.074-5.44v-4.999l-.074-5.403-.22-4.778 1.36.147 1.654.037 1.654-.037 1.36-.147-.257 4.742-.037 5.366 2.279.073h3.345 3.234l2.316-.073-.074-5.366-.22-4.742 1.36.147 1.654.037 1.654-.037 1.36-.147-.221 4.778-.073 5.403v4.999l.073 5.44.221 4.631a11.69 11.69 0 0 0-1.36-.073h-1.654-1.654c-.49 0-.944.025-1.36.073l.22-4.631.074-5.44V72.82z"/><path d="M160.585 65.726l-.037-1.948c0-.588-.025-1.017-.074-1.286l-1.36.037-1.727.11-1.875.147-1.764.184.11-.809c.049-.27.074-.539.074-.809s-.025-.539-.074-.809l-.11-.809 2.242.074 2.059.073 2.278.037h2.978 2.94l2.279-.037 1.985-.073 2.132-.074-.147.809-.037.809.037.809.147.809-1.654-.184-1.838-.147-1.691-.11-1.36-.037c-.024.123-.049.294-.073.515v.772 1.948 9.189l.073 5.44.221 4.631a11.69 11.69 0 0 0-1.36-.073h-1.654-1.654c-.49 0-.944.025-1.36.073l.22-4.631.074-5.44v-9.189z"/></g></svg>