<svg width="67" height="56" viewBox="0 0 67 56" fill="none" xmlns="http://www.w3.org/2000/svg">
<path d="M56.6509 53.9201V54.4201H57.1509H66.0069H66.5069V53.9201V2.08008V1.58008H66.0069H57.1509H57.0124L56.8937 1.65133L47.1737 7.48333L46.9309 7.62898V7.91208V17.4881V18.3796L47.6916 17.9147L56.6509 12.4396V53.9201Z" stroke="#87CEEB"/>
<path d="M3.66292 46.3148L3.66452 46.3177C5.29331 49.2051 7.55495 51.4667 10.4423 53.0955L10.4452 53.0971C13.3375 54.7039 16.6634 55.5 20.408 55.5C24.1526 55.5 27.4672 54.704 30.3364 53.0962L30.3377 53.0955C33.2251 51.4667 35.4867 49.2051 37.1155 46.3177C38.7474 43.4248 39.556 40.0979 39.556 36.352V19.648C39.556 15.9021 38.7474 12.5752 37.1155 9.68234C35.4868 6.79505 33.225 4.54509 30.3371 2.94019C27.4678 1.3082 24.1529 0.5 20.408 0.5C16.6627 0.5 13.3363 1.30837 10.4438 2.93971C7.55548 4.54464 5.29341 6.79476 3.66452 9.68234L3.66451 9.68234L3.66293 9.68518C2.05607 12.5775 1.26001 15.9033 1.26001 19.648V36.352C1.26001 40.0967 2.05607 43.4225 3.66292 46.3148ZM28.4716 14.2831L28.4734 14.2861C29.2881 15.6665 29.7 17.2334 29.7 19V36.964C29.7 38.7047 29.2889 40.2727 28.4725 41.6794C27.6525 43.0683 26.5382 44.1836 25.1225 45.029C23.716 45.8451 22.1483 46.256 20.408 46.256C18.6677 46.256 17.1 45.8451 15.6935 45.029C14.2777 44.1836 13.1635 43.0682 12.3435 41.6793C11.5271 40.2726 11.116 38.7046 11.116 36.964V19C11.116 17.2334 11.528 15.6665 12.3426 14.2861L12.3444 14.2831C13.1648 12.8702 14.2783 11.7567 15.6911 10.9364L15.6911 10.9364L15.6962 10.9334C17.1026 10.0941 18.6693 9.672 20.408 9.672C22.1467 9.672 23.7134 10.0941 25.1198 10.9334L25.1198 10.9334L25.1249 10.9364C26.5378 11.7567 27.6513 12.8702 28.4716 14.2831Z" stroke="#87CEEB"/>
</svg>
