<svg width="78" height="57" viewBox="0 0 78 57" fill="none" xmlns="http://www.w3.org/2000/svg">
<path d="M40.7109 54.332V54.832H41.2109H76.8869H77.3869V54.332V46.16V45.66H76.8869H55.9488L68.2528 34.7637C68.253 34.7636 68.2531 34.7635 68.2533 34.7634C70.2288 33.0287 71.8851 31.4455 73.2192 30.0145C74.6026 28.5567 75.6461 26.9563 76.3432 25.2137C77.0457 23.4573 77.3869 21.3138 77.3869 18.8C77.3869 15.3396 76.6131 12.2629 75.0516 9.58531C73.4946 6.89168 71.3534 4.78744 68.635 3.27961C65.9136 1.74607 62.8521 0.984009 59.4629 0.984009C55.8199 0.984009 52.5828 1.7057 49.7651 3.16395L49.7635 3.16479C46.9722 4.62218 44.7678 6.67701 43.1596 9.32442L43.1596 9.32441L43.1578 9.32735C41.5686 11.9843 40.7829 15.0879 40.7829 18.62V19.12H41.2829H50.2109H50.7263L50.7107 18.6049C50.6654 17.1107 51.0039 15.7247 51.7269 14.4368C52.4515 13.1462 53.4569 12.1174 54.7511 11.3454L54.7533 11.3441C56.0591 10.5561 57.564 10.156 59.2829 10.156C60.9065 10.156 62.314 10.5323 63.5222 11.2707L63.5257 11.2728C64.7682 12.0183 65.7378 13.0323 66.4397 14.3229L66.4397 14.3229L66.4415 14.3262C67.1395 15.5872 67.4949 17.038 67.4949 18.692C67.4949 19.8739 67.1831 21.1187 66.5382 22.4316C65.9056 23.7194 64.7569 25.1213 63.0548 26.6343L63.0543 26.6347L40.8783 46.3987L40.7109 46.5479V46.772V54.332Z" stroke="#87CEEB"/>
<path d="M3.16292 46.7988L3.16452 46.8017C4.79331 49.6891 7.05495 51.9507 9.94234 53.5795L9.94519 53.5811C12.8375 55.188 16.1634 55.984 19.908 55.984C23.6526 55.984 26.9672 55.188 29.8364 53.5802L29.8377 53.5795C32.7251 51.9507 34.9867 49.6891 36.6155 46.8017C38.2474 43.9088 39.056 40.5819 39.056 36.836V20.132C39.056 16.3861 38.2474 13.0592 36.6155 10.1663C34.9868 7.27906 32.725 5.0291 29.8371 3.4242C26.9678 1.79221 23.6529 0.984009 19.908 0.984009C16.1627 0.984009 12.8363 1.79237 9.94377 3.42372C7.05548 5.02864 4.79341 7.27877 3.16452 10.1663L3.16451 10.1663L3.16293 10.1692C1.55607 13.0615 0.76001 16.3874 0.76001 20.132V36.836C0.76001 40.5807 1.55607 43.9065 3.16292 46.7988ZM27.9716 14.7671L27.9734 14.7701C28.7881 16.1505 29.2 17.7174 29.2 19.484V37.448C29.2 39.1887 28.7889 40.7567 27.9725 42.1634C27.1525 43.5523 26.0382 44.6676 24.6225 45.5131C23.216 46.3291 21.6483 46.74 19.908 46.74C18.1677 46.74 16.6 46.3291 15.1935 45.5131C13.7777 44.6676 12.6635 43.5522 11.8435 42.1633C11.0271 40.7566 10.616 39.1887 10.616 37.448V19.484C10.616 17.7174 11.028 16.1505 11.8426 14.7701L11.8444 14.7671C12.6648 13.3543 13.7783 12.2407 15.1911 11.4204L15.1911 11.4204L15.1962 11.4174C16.6026 10.5781 18.1693 10.156 19.908 10.156C21.6467 10.156 23.2134 10.5781 24.6198 11.4174L24.6198 11.4174L24.6249 11.4204C26.0378 12.2407 27.1513 13.3543 27.9716 14.7671Z" stroke="#87CEEB"/>
</svg>
