<svg width="175" height="46" viewBox="0 0 175 46" fill="none" xmlns="http://www.w3.org/2000/svg">
<path d="M106.389 13.7276C103.833 13.7276 101.754 14.2147 99.7314 15.1858C99.7318 9.18629 99.7406 3.90552 99.9286 2.05041L99.9953 1.392L99.3437 1.5077L86.0203 3.8735L85.6077 3.94676V4.36579V5.54926V5.98345L86.0376 6.04432L87.41 6.23864C88.2104 6.4179 88.6776 6.71084 89.0059 7.17043C89.3559 7.66044 89.5898 8.39552 89.784 9.55599C89.9807 11.9177 90.0309 19.3637 90.0058 26.7755C89.9806 34.1998 89.8804 41.5352 89.7811 43.5932L89.7608 44.0146L90.1729 44.1055C93.7707 44.899 97.5887 45.4989 101.418 45.4989C106.791 45.4989 111.154 43.8372 114.174 40.8154C117.194 37.7938 118.819 33.465 118.819 28.2322C118.819 19.9444 113.495 13.7276 106.389 13.7276ZM1 2.28822H0.5V2.78822V4.56285L0.5 5.01576L0.9507 5.06041L2.92619 5.25615C4.1091 5.43889 4.86051 5.87571 5.38355 6.64348C5.9318 7.44826 6.27013 8.67394 6.46635 10.5263C7.06089 17.5908 6.86284 30.371 6.46585 36.4715C6.26878 38.324 5.93034 39.6 5.38003 40.4301C4.85654 41.2198 4.11332 41.6472 2.95124 41.7347L2.92091 41.737L2.89108 41.743L0.902267 42.1393L0.5 42.2195V42.6297V44.2073V44.7073H1H23.4694H23.9694V44.2073V42.6297V42.2059L23.5514 42.1365L21.1652 41.7401L21.1433 41.7364L21.1211 41.7347C19.9588 41.6466 19.2152 41.2192 18.6914 40.4296C18.1406 39.5992 17.8018 38.3225 17.6048 36.4683C17.413 34.0039 17.2219 30.0703 17.2091 25.2006L21.46 25.3761L21.4703 25.3766H21.4806C22.816 25.3766 23.7657 25.8957 24.4679 26.7882C25.1894 27.7053 25.6668 29.0415 25.9592 30.6834L26.0327 31.0957H26.4515H28.2416H28.7416V30.5957V16.5957V16.0957H28.2416H26.4515H26.0328L25.9593 16.5079C25.6662 18.1505 25.1888 19.4867 24.4674 20.4036C23.7654 21.296 22.8161 21.8148 21.4806 21.8148H21.4702L21.4599 21.8153L17.2099 21.9918C17.2194 15.7632 17.3972 9.92801 17.5827 6.24745H24.0665C26.6332 6.24745 28.5425 7.04248 30.0565 8.52107C31.589 10.0177 32.7502 12.2478 33.7341 15.1773L33.8879 15.6352L34.3508 15.4973L36.3396 14.905L36.7033 14.7967L36.6968 14.4172L36.497 2.77964L36.4886 2.28822H35.9971L1 2.28822ZM148.549 39.7679L148.772 39.4587L148.533 39.162L147.739 38.1768L147.447 37.8141L147.065 38.0797C146.083 38.7613 145.231 39.274 144.249 39.6215C143.27 39.9679 142.135 40.1591 140.588 40.1591C137.144 40.1591 134.611 38.885 132.951 36.7747C131.356 34.7464 130.528 31.8949 130.541 28.5351H148.542H149.042V28.0351C149.042 23.9176 148.029 20.2439 145.899 17.589C143.755 14.9185 140.523 13.3335 136.214 13.3335C131.005 13.3335 127.038 15.3142 124.378 18.3622C121.727 21.4007 120.403 25.4681 120.403 29.6138C120.403 34.2707 122.038 38.248 124.849 41.0624C127.66 43.8767 131.619 45.4994 136.214 45.5C141.939 45.5 146.465 42.6612 148.549 39.7679ZM172.707 15.399L172.699 15.0744L172.399 14.9502C169.939 13.9322 166.691 13.3335 163.062 13.3335C155.517 13.3335 150.63 17.816 150.63 23.3012C150.63 25.9929 151.523 27.9508 153.07 29.432C154.593 30.8905 156.716 31.8553 159.122 32.6507C161.596 33.5339 163.106 34.2961 163.997 35.0897C164.85 35.8484 165.147 36.6442 165.147 37.6999C165.147 39.7866 163.585 41.7355 160.675 41.7355C158.895 41.7355 157.377 41.2292 156.037 40.0377C154.681 38.8323 153.475 36.8959 152.396 33.9751L152.235 33.5407L151.79 33.6674L150.397 34.0638L150.025 34.1697L150.034 34.5562L150.234 43.2346L150.241 43.5607L150.543 43.6852C153.004 44.7017 157.446 45.4989 161.273 45.4989C165.23 45.4989 168.531 44.4922 170.855 42.6534C173.19 40.8054 174.5 38.1445 174.5 34.9388C174.5 32.7688 173.923 31.0172 172.635 29.554C171.363 28.1092 169.436 26.9884 166.822 25.99C164.036 24.9049 162.212 24.0402 161.084 23.1546C160.528 22.7178 160.159 22.289 159.927 21.8434C159.696 21.4009 159.586 20.9151 159.586 20.342C159.586 18.0428 161.166 16.5022 163.265 16.5022C164.938 16.5022 166.301 17.0038 167.467 18.1149C168.65 19.2429 169.662 21.0295 170.546 23.6578L170.698 24.1092L171.157 23.9793L172.547 23.5852L172.921 23.4793L172.911 23.091L172.707 15.399ZM88.3461 14.1909C85.0153 12.2487 79.5661 13.0194 76.1291 18.6003L76.265 13.8489L76.2828 13.2258L75.6707 13.3436L62.3496 15.9076L61.9441 15.9857V16.3986V17.5821V18.0163L62.374 18.0771L63.7657 18.2742L63.7732 18.2753L63.7808 18.2761C64.5894 18.3656 65.0875 18.6195 65.426 19.0673C65.7856 19.543 66.0242 20.3129 66.1219 21.5665L66.1221 21.5695C66.5161 26.2643 66.3198 34.5124 66.1214 38.6556C66.0239 39.7979 65.7876 40.5743 65.4202 41.0804C65.0707 41.5621 64.564 41.8513 63.7808 41.9379L63.773 41.9388L63.7653 41.9399L62.3736 42.1381L61.9441 42.1992V42.6331V44.2106V44.7106H62.4441H80.9359H81.4359V44.2106V42.6331V42.1729L80.9773 42.1348L78.5994 41.9373C78.598 41.9372 78.5967 41.9371 78.5953 41.9369C77.7076 41.8477 77.2165 41.5536 76.8994 41.0913C76.5549 40.5891 76.3622 39.8151 76.2634 38.6465L76.2635 38.6465L76.2624 38.6359C75.8736 34.9675 75.8678 27.6307 76.0605 22.8964C76.2583 22.6783 76.5992 22.4376 77.0864 22.2265C77.6444 21.9849 78.3554 21.7994 79.1643 21.7297C80.7801 21.5905 82.7554 21.9153 84.6414 23.1314L85.1543 23.4621L85.3776 22.8942L88.5595 14.8059L88.7165 14.4069L88.3461 14.1909ZM101.815 42.3279C101.414 42.3279 100.981 42.3277 100.575 42.3042C100.323 42.2896 100.096 42.2665 99.9043 42.2332C99.7168 38.9882 99.5435 28.1024 99.7223 18.3416C100.709 18.028 101.387 17.8839 102.212 17.8839C104.167 17.8839 105.714 19.016 106.798 20.9784C107.888 22.952 108.476 25.7204 108.476 28.8221C108.475 32.7131 107.738 36.1324 106.514 38.5596C105.283 41.0018 103.627 42.3279 101.815 42.3279ZM62.7454 29.4156C62.7454 24.8887 61.4774 20.8634 58.8902 17.9634C56.2954 15.0548 52.4225 13.3335 47.3317 13.3335C42.2339 13.3335 38.2194 15.1576 35.4819 18.1037C32.7497 21.0442 31.3219 25.0671 31.3219 29.4156C31.3219 33.943 32.5899 37.9689 35.1769 40.8693C37.7716 43.7783 41.6443 45.5 46.7346 45.5C51.8324 45.5 55.8472 43.6753 58.5849 40.7286C61.3174 37.7876 62.7454 33.7642 62.7454 29.4156ZM41.6666 29.4156C41.6666 25.5803 41.966 22.2481 42.7825 19.8901C43.1895 18.7143 43.7131 17.8171 44.3591 17.2175C44.9933 16.6288 45.7665 16.3063 46.7346 16.3063C48.5213 16.3063 49.9326 17.5995 50.921 19.9913C51.9049 22.3724 52.3985 25.7016 52.3985 29.4156C52.3985 33.2516 52.0983 36.5813 51.2586 38.9368C50.8402 40.1105 50.2999 41.0071 49.6286 41.6074C48.9682 42.198 48.1562 42.5249 47.133 42.5249C45.4568 42.5249 44.0911 41.2468 43.1219 38.8438C42.1606 36.4604 41.6666 33.129 41.6666 29.4156ZM138.193 19.3972C138.7 21.1449 138.867 23.3185 138.891 25.1787L130.579 25.355C130.725 23.2806 131.201 21.069 131.994 19.3434C132.871 17.4364 134.039 16.3063 135.418 16.3063C136.094 16.3063 136.634 16.5937 137.086 17.1189C137.551 17.6586 137.917 18.4446 138.193 19.3972Z" stroke="#002868"/>
</svg>
