<svg width="24" height="24" viewBox="0 0 24 24" fill="none" xmlns="http://www.w3.org/2000/svg">
<path d="M18.6902 11.5308C18.1202 11.3808 17.4502 11.3008 16.6502 11.3008C15.5402 11.3008 15.1302 11.5708 14.5602 12.0008C14.5302 12.0208 14.5002 12.0508 14.4702 12.0808L13.5202 13.0908C12.7202 13.9308 11.2802 13.9408 10.4802 13.0808L9.53018 12.0808C9.50017 12.0508 9.47018 12.0208 9.44018 12.0008C8.87017 11.5708 8.46018 11.3008 7.35018 11.3008C6.55018 11.3008 5.88018 11.3808 5.31018 11.5308C2.93018 12.1708 2.93018 14.0608 2.93018 15.7208V16.6508C2.93018 19.1608 2.93018 22.0008 8.28018 22.0008H15.7202C19.2702 22.0008 21.0702 20.2008 21.0702 16.6508V15.7208C21.0702 14.0608 21.0702 12.1708 18.6902 11.5308ZM14.3302 18.4008H9.67018C9.29018 18.4008 8.98018 18.0908 8.98018 17.7008C8.98018 17.3108 9.29018 17.0008 9.67018 17.0008H14.3302C14.7102 17.0008 15.0202 17.3108 15.0202 17.7008C15.0202 18.0908 14.7102 18.4008 14.3302 18.4008Z" fill="#214A8B"/>
<path d="M12.6699 4.3L13.3199 4.95C13.5799 5.21 14.0099 5.21 14.2699 4.95C14.5299 4.69 14.5299 4.26 14.2699 4L12.4699 2.2C12.4099 2.14 12.3299 2.09 12.2499 2.05C12.1699 2.02 12.0899 2 11.9999 2C11.9099 2 11.8299 2.02 11.7399 2.05C11.6599 2.08 11.5999 2.13 11.5399 2.18C11.5299 2.19 11.5299 2.19 11.5199 2.19L9.7199 4C9.4599 4.26 9.4599 4.69 9.7199 4.95C9.9799 5.21 10.4099 5.21 10.6699 4.95L11.3199 4.3V6H12.6699V4.3Z" fill="#214A8B"/>
<path d="M19.21 10.12C19.17 10.1 19.12 10.09 19.08 10.08H19.07C18.36 9.89 17.57 9.8 16.65 9.8C15.11 9.8 14.38 10.25 13.72 10.75C13.58 10.85 13.48 10.95 13.38 11.05L12.43 12.06C12.33 12.16 12.17 12.22 12 12.22C11.94 12.22 11.72 12.21 11.57 12.05L10.59 11.02C10.49 10.91 10.37 10.82 10.34 10.8C9.62004 10.25 8.89004 9.8 7.35004 9.8C6.43004 9.8 5.64004 9.89 4.92004 10.08C4.88004 10.09 4.83004 10.1 4.79004 10.12C4.80004 8.13 5.00004 6 9.21004 6H11.33V9.08C11.33 9.45 11.63 9.75 12 9.75C12.37 9.75 12.67 9.45 12.67 9.08V6H14.79C19 6 19.2 8.13 19.21 10.12Z" fill="#214A8B"/>
</svg>
